<svg id="レイヤー_1" data-name="レイヤー 1" xmlns="http://www.w3.org/2000/svg" viewBox="0 0 55 55"><defs><style>.cls-1{fill:#fff;}</style></defs><title>ico_corp_w</title><path class="cls-1" d="M45.23,51.52a1.68,1.68,0,0,1-1.69-1.69v-37H27.75a1.69,1.69,0,0,1-1.69-1.69V6.67H12.69V49.83a1.69,1.69,0,0,1-3.38,0V5A1.69,1.69,0,0,1,11,3.29H27.75A1.69,1.69,0,0,1,29.44,5v4.5H45.23a1.69,1.69,0,0,1,1.69,1.69V49.83A1.69,1.69,0,0,1,45.23,51.52Zm-6.79-33H17.92a.84.84,0,0,0-.84.84v3.54a.85.85,0,0,0,.84.85H38.44a.85.85,0,0,0,.85-.85V19.34A.84.84,0,0,0,38.44,18.5Zm0,10.34H17.92a.84.84,0,0,0-.84.84v3.54a.85.85,0,0,0,.84.85H38.44a.85.85,0,0,0,.85-.85V29.68A.84.84,0,0,0,38.44,28.84Zm0,10.34H17.92a.85.85,0,0,0-.84.84v3.54a.85.85,0,0,0,.84.85H38.44a.85.85,0,0,0,.85-.85V40A.85.85,0,0,0,38.44,39.18Z"/></svg>