<svg id="レイヤー_1" data-name="レイヤー 1" xmlns="http://www.w3.org/2000/svg" viewBox="0 0 55 55"><defs><style>.cls-1{fill:#fff;}</style></defs><title>ico_rd_w</title><path class="cls-1" d="M27.33,47.21A17.51,17.51,0,0,1,21,46v4.87a1.59,1.59,0,0,0,1.17,1.5,18,18,0,0,0,10.23,0,1.6,1.6,0,0,0,1.18-1.5V46A17.51,17.51,0,0,1,27.33,47.21Z"/><path class="cls-1" d="M27.33,19.34c6,0,10.87,4.27,10.87,9.51a9.09,9.09,0,0,1-4.3,7.52L33,37l-.22,1.09-.81,4.09c-1.58,1.12-2.69.84-4.61.84s-3,.28-4.61-.84l-.82-4.09L21.68,37l-.92-.63a9.07,9.07,0,0,1-4.3-7.52c0-5.24,4.88-9.51,10.87-9.51m0-2.72c-7.51,0-13.59,5.48-13.59,12.23a11.83,11.83,0,0,0,5.5,9.78l1,5.11c2.28,1.72,4,2,7.07,2s4.79-.28,7.06-2l1-5.11a11.83,11.83,0,0,0,5.5-9.78c0-6.75-6.09-12.23-13.59-12.23Z"/><path class="cls-1" d="M35.72,15a1.36,1.36,0,0,1-1-2.32l4.5-4.44a1.36,1.36,0,0,1,1.92,1.92l-4.49,4.44A1.36,1.36,0,0,1,35.72,15Z"/><path class="cls-1" d="M18.92,15a1.34,1.34,0,0,0,1-.4,1.36,1.36,0,0,0,0-1.92l-4.5-4.44a1.36,1.36,0,0,0-1.92,1.92L18,14.63A1.32,1.32,0,0,0,18.92,15Z"/><path class="cls-1" d="M26.39,11.67a1.32,1.32,0,0,0,1,.4,1.36,1.36,0,0,0,1.36-1.36l0-6.32a1.36,1.36,0,1,0-2.72,0l0,6.32A1.35,1.35,0,0,0,26.39,11.67Z"/></svg>