<svg id="レイヤー_1" data-name="レイヤー 1" xmlns="http://www.w3.org/2000/svg" viewBox="0 0 55 55"><defs><style>.cls-1{fill:#fff;}</style></defs><title>ico_product_w</title><path class="cls-1" d="M51.4,21.52c-3.08-1.69-6.52-3.25-6.72-3.34,0,0-17.33-7.08-21.93-9-6.12-2.59-9.15.52-9.13.52L2.56,18.57a1.42,1.42,0,0,0-.13.12c-.24.25-2.38,2.5-2.38,5.1v5.43a5.51,5.51,0,0,0,3,5c1.84,1,19.27,9.86,20,10.23a13.87,13.87,0,0,0,5.63,1.41,96.53,96.53,0,0,0,12-1.49,22.71,22.71,0,0,0,6.88-2.87c.5-.38,4.91-3.72,5.92-4.74A6.29,6.29,0,0,0,55,33V27.41A6.31,6.31,0,0,0,51.4,21.52Zm0,13.12c-.65.66-3.78,3.09-5.49,4.39a20.25,20.25,0,0,1-5.74,2.39,95.46,95.46,0,0,1-11.44,1.45,11.12,11.12,0,0,1-4.29-1.09c-.18-.1-18.11-9.17-19.9-10.17A2.57,2.57,0,0,1,3,29.32V23.79a5.42,5.42,0,0,1,1.48-3l11.11-9c.08-.07,1.86-1.72,6,0,4.61,1.95,21.92,9,21.92,9S47,22.48,50,24.12a3.38,3.38,0,0,1,2,3.15v5.6A3.36,3.36,0,0,1,51.35,34.64Z"/><path class="cls-1" d="M48.77,27.35A1.5,1.5,0,0,0,47.41,29a1,1,0,0,1-.26.64L42.8,32.8a6.32,6.32,0,0,1-3.59.87c-1.88,0-6.56-.36-9.57-.55l5.15-4a1.11,1.11,0,1,0-1.36-1.76l-7.09,5.47A15.68,15.68,0,0,1,23.68,32C22.2,31.4,10.52,25.6,9.14,24.82c-.85-.49-1-.92-1-1a1.48,1.48,0,0,0-2.95-.31c0,.24-.25,2.34,2.47,3.89,1.46.83,13.25,6.68,14.83,7.36a20.16,20.16,0,0,0,4.06,1.16c.39,0,9.65.65,12.58.71h.23a8.73,8.73,0,0,0,5.19-1.46L49,31.92a4,4,0,0,0,1.38-3.24A1.48,1.48,0,0,0,48.77,27.35Z"/><path class="cls-1" d="M19.45,26.83c4.49,0,9.05-1.61,9.05-4.7V19.55c0-6.18-18.1-6.18-18.1,0v2.58C10.4,25.22,15,26.83,19.45,26.83Zm0-9c3.72,0,5.94,1.22,6.08,1.75v2.55c-.13.53-2.35,1.76-6.08,1.76s-5.95-1.23-6.08-1.74V19.57C13.49,19,15.72,17.81,19.45,17.81Z"/><path class="cls-1" d="M19.08,22.55a9.08,9.08,0,0,0,5.58-1.45,1.12,1.12,0,1,0-1.33-1.79,6.79,6.79,0,0,1-4.25,1,4.28,4.28,0,0,1-3.34-1.14,1.11,1.11,0,1,0-1.66,1.47A6.34,6.34,0,0,0,19.08,22.55Z"/></svg>